<svg width="67" height="56" viewBox="0 0 67 56" fill="none" xmlns="http://www.w3.org/2000/svg">
<path fill-rule="evenodd" clip-rule="evenodd" d="M10.4726 12.2822C10.0695 13.0164 9.83055 14.0159 9.9418 14.5031C10.2482 15.8452 16.9221 22.2497 17.7955 22.0402C19.3985 21.6558 18.7107 19.8824 15.8768 17.0921C14.2588 15.4993 13.0479 14.0136 13.1851 13.7906C13.3222 13.567 22.7253 12.3442 34.0803 11.0728C45.4347 9.80151 54.9257 8.71036 55.1698 8.64801C55.4141 8.58626 55.6747 8.79939 55.7485 9.1226C55.9092 9.82609 35.323 46.1814 34.5196 46.6124C33.5996 47.1067 29.9449 36.3411 30.0297 33.3863C30.1457 29.3462 32.6814 26.0045 38.5119 22.211C42.6495 19.5186 43.5119 18.7029 43.2822 17.6972C42.9297 16.1533 41.4996 16.751 35.2964 21.0375C26.2822 27.2654 25.243 31.7917 29.9617 44.2647C31.9283 49.4636 32.5923 50.1744 34.9528 49.6083C36.8364 49.1566 36.9257 49.0148 50.9625 24.2247C59.2755 9.5428 59.9687 7.58269 57.3179 6.25091C56.5018 5.84085 15.9049 9.86552 12.156 10.7284C11.6335 10.8487 10.8757 11.5481 10.4726 12.2822ZM13.878 31.0556C11.1412 32.8601 9.99585 33.9661 10.1529 34.654C10.5415 36.356 11.1021 36.2456 15.2231 33.6561C19.7797 30.7935 21.2423 29.3326 20.4044 28.4811C19.5683 27.6316 18.3336 28.1184 13.878 31.0556ZM14.7999 38.496C10.3883 41.4885 8.03035 43.45 8.05446 44.1076C8.12258 45.9935 9.7587 45.3559 16.5752 40.7861C24.4322 35.5194 24.7717 35.2181 24.0521 34.143C23.2628 32.963 22.2661 33.4321 14.7999 38.496Z" fill="#FFA500"/>
</svg>
